{"asset":{"version":"2.0","generator":"Blockbench 5.1.3 glTF exporter"},"scenes":[{"nodes":[0,1,2,3,4,5,6,7,8,9,10,11,12,13],"name":"blockbench_export"}],"scene":0,"nodes":[{"translation":[0,0.0625,-0.75],"name":"beveled_cuboid","mesh":0},{"rotation":[0,0,0.7071067811865475,0.7071067811865476],"translation":[0.2625,0.15,-0.625],"name":"sphere","mesh":1},{"rotation":[0,0,0.7071067811865475,0.7071067811865476],"translation":[-0.275,0.15,0.1875],"name":"sphere","mesh":2},{"rotation":[0,0,0.7071067811865475,0.7071067811865476],"translation":[0.2625,0.15,0.1875],"name":"sphere","mesh":3},{"rotation":[0,0,0.7071067811865475,0.7071067811865476],"translation":[-0.275,0.15,-0.625],"name":"sphere","mesh":4},{"translation":[-0.06875,0.2375,-1.059375],"name":"beveled_cuboid","mesh":5},{"rotation":[0.13052619222005157,0,0,0.9914448613738104],"translation":[0,0.63125,-1.09375],"name":"beveled_cuboid","mesh":6},{"translation":[0,0.38125,-1.065],"name":"mesh","mesh":7},{"translation":[0,0.18125,-1.0625],"name":"mesh","mesh":8},{"rotation":[0.0009135623211521573,-0.0348875375166154,-0.026161002018241467,0.9990483607430192],"translation":[-0.26875,0.375,-0.9125],"name":"mesh","mesh":9},{"rotation":[0.0009135623211521573,0.0348875375166154,0.026161002018241467,0.9990483607430192],"translation":[0.26875,0.375,-0.9125],"name":"mesh","mesh":10},{"translation":[0,0,-0.25],"name":"mesh","mesh":11},{"rotation":[0,0,-0.7071067811865475,0.7071067811865476],"translation":[0.0375,0.13125,-0.6624999999999999],"name":"cylinder","mesh":12},{"rotation":[0,0,0.7071067811865475,0.7071067811865476],"translation":[-0.0375,0.13125,-0.6624999999999999],"name":"cylinder","mesh":13}],"bufferViews":[{"buffer":0,"byteOffset":0,"byteLength":11328,"target":34962,"byteStride":12},{"buffer":0,"byteOffset":11328,"byteLength":11328,"target":34962,"byteStride":12},{"buffer":0,"byteOffset":22656,"byteLength":7552,"target":34962,"byteStride":8},{"buffer":0,"byteOffset":30208,"byteLength":2712,"target":34963},{"buffer":0,"byteOffset":32920,"byteLength":2160,"target":34962,"byteStride":12},{"buffer":0,"byteOffset":35080,"byteLength":2160,"target":34962,"byteStride":12},{"buffer":0,"byteOffset":37240,"byteLength":1440,"target":34962,"byteStride":8},{"buffer":0,"byteOffset":38680,"byteLength":480,"target":34963},{"buffer":0,"byteOffset":39160,"byteLength":2160,"target":34962,"byteStride":12},{"buffer":0,"byteOffset":41320,"byteLength":2160,"target":34962,"byteStride":12},{"buffer":0,"byteOffset":43480,"byteLength":1440,"target":34962,"byteStride":8},{"buffer":0,"byteOffset":44920,"byteLength":480,"target":34963},{"buffer":0,"byteOffset":45400,"byteLength":2160,"target":34962,"byteStride":12},{"buffer":0,"byteOffset":47560,"byteLength":2160,"target":34962,"byteStride":12},{"buffer":0,"byteOffset":49720,"byteLength":1440,"target":34962,"byteStride":8},{"buffer":0,"byteOffset":51160,"byteLength":480,"target":34963},{"buffer":0,"byteOffset":51640,"byteLength":2160,"target":34962,"byteStride":12},{"buffer":0,"byteOffset":53800,"byteLength":2160,"target":34962,"byteStride":12},{"buffer":0,"byteOffset":55960,"byteLength":1440,"target":34962,"byteStride":8},{"buffer":0,"byteOffset":57400,"byteLength":480,"target":34963},{"buffer":0,"byteOffset":57880,"byteLength":16200,"target":34962,"byteStride":12},{"buffer":0,"byteOffset":74080,"byteLength":16200,"target":34962,"byteStride":12},{"buffer":0,"byteOffset":90280,"byteLength":10800,"target":34962,"byteStride":8},{"buffer":0,"byteOffset":101080,"byteLength":3708,"target":34963},{"buffer":0,"byteOffset":104788,"byteLength":1632,"target":34962,"byteStride":12},{"buffer":0,"byteOffset":106420,"byteLength":1632,"target":34962,"byteStride":12},{"buffer":0,"byteOffset":108052,"byteLength":1088,"target":34962,"byteStride":8},{"buffer":0,"byteOffset":109140,"byteLength":360,"target":34963},{"buffer":0,"byteOffset":109500,"byteLength":2160,"target":34962,"byteStride":12},{"buffer":0,"byteOffset":111660,"byteLength":2160,"target":34962,"byteStride":12},{"buffer":0,"byteOffset":113820,"byteLength":1440,"target":34962,"byteStride":8},{"buffer":0,"byteOffset":115260,"byteLength":540,"target":34963},{"buffer":0,"byteOffset":115800,"byteLength":2928,"target":34962,"byteStride":12},{"buffer":0,"byteOffset":118728,"byteLength":2928,"target":34962,"byteStride":12},{"buffer":0,"byteOffset":121656,"byteLength":1952,"target":34962,"byteStride":8},{"buffer":0,"byteOffset":123608,"byteLength":696,"target":34963},{"buffer":0,"byteOffset":124304,"byteLength":2400,"target":34962,"byteStride":12},{"buffer":0,"byteOffset":126704,"byteLength":2400,"target":34962,"byteStride":12},{"buffer":0,"byteOffset":129104,"byteLength":1600,"target":34962,"byteStride":8},{"buffer":0,"byteOffset":130704,"byteLength":576,"target":34963},{"buffer":0,"byteOffset":131280,"byteLength":2400,"target":34962,"byteStride":12},{"buffer":0,"byteOffset":133680,"byteLength":2400,"target":34962,"byteStride":12},{"buffer":0,"byteOffset":136080,"byteLength":1600,"target":34962,"byteStride":8},{"buffer":0,"byteOffset":137680,"byteLength":576,"target":34963},{"buffer":0,"byteOffset":138256,"byteLength":1056,"target":34962,"byteStride":12},{"buffer":0,"byteOffset":139312,"byteLength":1056,"target":34962,"byteStride":12},{"buffer":0,"byteOffset":140368,"byteLength":704,"target":34962,"byteStride":8},{"buffer":0,"byteOffset":141072,"byteLength":264,"target":34963},{"buffer":0,"byteOffset":141336,"byteLength":840,"target":34962,"byteStride":12},{"buffer":0,"byteOffset":142176,"byteLength":840,"target":34962,"byteStride":12},{"buffer":0,"byteOffset":143016,"byteLength":560,"target":34962,"byteStride":8},{"buffer":0,"byteOffset":143576,"byteLength":192,"target":34963},{"buffer":0,"byteOffset":143768,"byteLength":840,"target":34962,"byteStride":12},{"buffer":0,"byteOffset":144608,"byteLength":840,"target":34962,"byteStride":12},{"buffer":0,"byteOffset":145448,"byteLength":560,"target":34962,"byteStride":8},{"buffer":0,"byteOffset":146008,"byteLength":192,"target":34963}],"buffers":[{"byteLength":146200,"uri":"data:application/octet-stream;base64,"}],"accessors":[{"bufferView":0,"componentType":5126,"count":944,"max":[0.35624998807907104,0.825248122215271,0.3345968723297119],"min":[-0.35624998807907104,-0.05078125,-0.32982251048088074],"type":"VEC3"},{"bufferView":1,"componentType":5126,"count":944,"max":[1,1,1],"min":[-1,-1,-1],"type":"VEC3"},{"bufferView":2,"componentType":5126,"count":944,"max":[0.525390625,0.7265046834945679],"min":[0,0],"type":"VEC2"},{"bufferView":3,"componentType":5123,"count":1356,"max":[943],"min":[0],"type":"SCALAR"},{"bufferView":4,"componentType":5126,"count":180,"max":[0.16249999403953552,0.07725437730550766,0.15026438236236572],"min":[-0.16249999403953552,-0.07725437730550766,-0.15026438236236572],"type":"VEC3"},{"bufferView":5,"componentType":5126,"count":180,"max":[0.9484410881996155,1,1],"min":[-0.9484410881996155,-1,-1],"type":"VEC3"},{"bufferView":6,"componentType":5126,"count":180,"max":[0.96875,1],"min":[0.03593749925494194,0],"type":"VEC2"},{"bufferView":7,"componentType":5123,"count":240,"max":[179],"min":[0],"type":"SCALAR"},{"bufferView":8,"componentType":5126,"count":180,"max":[0.16249999403953552,0.07725437730550766,0.15026438236236572],"min":[-0.16249999403953552,-0.07725437730550766,-0.15026438236236572],"type":"VEC3"},{"bufferView":9,"componentType":5126,"count":180,"max":[0.9484410881996155,1,1],"min":[-0.9484410881996155,-1,-1],"type":"VEC3"},{"bufferView":10,"componentType":5126,"count":180,"max":[0.96875,1],"min":[0.03593749925494194,0],"type":"VEC2"},{"bufferView":11,"componentType":5123,"count":240,"max":[179],"min":[0],"type":"SCALAR"},{"bufferView":12,"componentType":5126,"count":180,"max":[0.16249999403953552,0.07725437730550766,0.15026438236236572],"min":[-0.16249999403953552,-0.07725437730550766,-0.15026438236236572],"type":"VEC3"},{"bufferView":13,"componentType":5126,"count":180,"max":[0.9484410881996155,1,1],"min":[-0.9484410881996155,-1,-1],"type":"VEC3"},{"bufferView":14,"componentType":5126,"count":180,"max":[0.96875,1],"min":[0.03593749925494194,0],"type":"VEC2"},{"bufferView":15,"componentType":5123,"count":240,"max":[179],"min":[0],"type":"SCALAR"},{"bufferView":16,"componentType":5126,"count":180,"max":[0.16249999403953552,0.07725437730550766,0.15026438236236572],"min":[-0.16249999403953552,-0.07725437730550766,-0.15026438236236572],"type":"VEC3"},{"bufferView":17,"componentType":5126,"count":180,"max":[0.9484410881996155,1,1],"min":[-0.9484410881996155,-1,-1],"type":"VEC3"},{"bufferView":18,"componentType":5126,"count":180,"max":[0.96875,1],"min":[0.03593749925494194,0],"type":"VEC2"},{"bufferView":19,"componentType":5123,"count":240,"max":[179],"min":[0],"type":"SCALAR"},{"bufferView":20,"componentType":5126,"count":1350,"max":[0.14374999701976776,0.1507331281900406,0.0003806249878834933],"min":[-0.0062500000931322575,0.09926687180995941,-0.006626875139772892],"type":"VEC3"},{"bufferView":21,"componentType":5126,"count":1350,"max":[1,1,1],"min":[-1,-1,-1],"type":"VEC3"},{"bufferView":22,"componentType":5126,"count":1350,"max":[0.046925000846385956,0.0625],"min":[0,0],"type":"VEC2"},{"bufferView":23,"componentType":5123,"count":1854,"max":[1349],"min":[0],"type":"SCALAR"},{"bufferView":24,"componentType":5126,"count":136,"max":[0.3031249940395355,0.09587062150239944,0.0732981264591217],"min":[-0.3031249940395355,-0.025033125653862953,0.004548124969005585],"type":"VEC3"},{"bufferView":25,"componentType":5126,"count":136,"max":[0.9714667201042175,1,0.9999591708183289],"min":[-0.9714667201042175,-1,-0.9999591708183289],"type":"VEC3"},{"bufferView":26,"componentType":5126,"count":136,"max":[0.7602562308311462,0.7342950105667114],"min":[0,0],"type":"VEC2"},{"bufferView":27,"componentType":5123,"count":180,"max":[135],"min":[0],"type":"SCALAR"},{"bufferView":28,"componentType":5126,"count":180,"max":[0.2874999940395355,0.2515625059604645,0.02500000037252903],"min":[-0.2874999940395355,0.010937499813735485,-0.012500000186264515],"type":"VEC3"},{"bufferView":29,"componentType":5126,"count":180,"max":[1,1,1],"min":[-1,-1,-1],"type":"VEC3"},{"bufferView":30,"componentType":5126,"count":180,"max":[0.5437468886375427,0.40625],"min":[0,0],"type":"VEC2"},{"bufferView":31,"componentType":5123,"count":270,"max":[179],"min":[0],"type":"SCALAR"},{"bufferView":32,"componentType":5126,"count":244,"max":[0.2562499940395355,0.18125000596046448,0.00937500037252903],"min":[-0.2562499940395355,0.08124999701976776,-0.015625],"type":"VEC3"},{"bufferView":33,"componentType":5126,"count":244,"max":[0.9191450476646423,1,1],"min":[-0.9191450476646423,-1,-1],"type":"VEC3"},{"bufferView":34,"componentType":5126,"count":244,"max":[0.5518156290054321,0.37812501192092896],"min":[0,0],"type":"VEC2"},{"bufferView":35,"componentType":5123,"count":348,"max":[243],"min":[0],"type":"SCALAR"},{"bufferView":36,"componentType":5126,"count":200,"max":[0.05424312502145767,0.2876081168651581,0.16856749355793],"min":[-0.05345812439918518,-0.031344376504421234,-0.13159437477588654],"type":"VEC3"},{"bufferView":37,"componentType":5126,"count":200,"max":[1,0.9999986290931702,0.9977765083312988],"min":[-1,-0.9999980330467224,-0.9999504089355469],"type":"VEC3"},{"bufferView":38,"componentType":5126,"count":200,"max":[0.8647618889808655,0.8141705989837646],"min":[0.005745625123381615,0],"type":"VEC2"},{"bufferView":39,"componentType":5123,"count":288,"max":[199],"min":[0],"type":"SCALAR"},{"bufferView":40,"componentType":5126,"count":200,"max":[0.05345812439918518,0.2876081168651581,0.16856749355793],"min":[-0.05424312502145767,-0.031344376504421234,-0.13159437477588654],"type":"VEC3"},{"bufferView":41,"componentType":5126,"count":200,"max":[1,0.9999986290931702,0.9977765083312988],"min":[-1,-0.9999980330467224,-0.9999504089355469],"type":"VEC3"},{"bufferView":42,"componentType":5126,"count":200,"max":[0.8647618889808655,0.8141705989837646],"min":[0.005745625123381615,0],"type":"VEC2"},{"bufferView":43,"componentType":5123,"count":288,"max":[199],"min":[0],"type":"SCALAR"},{"bufferView":44,"componentType":5126,"count":88,"max":[0.25,0.375,0.6875],"min":[-0.25,0.125,-0.6875],"type":"VEC3"},{"bufferView":45,"componentType":5126,"count":88,"max":[1,1,1],"min":[-1,-1,-1],"type":"VEC3"},{"bufferView":46,"componentType":5126,"count":88,"max":[0.625,0.3515625],"min":[0,0],"type":"VEC2"},{"bufferView":47,"componentType":5123,"count":132,"max":[87],"min":[0],"type":"SCALAR"},{"bufferView":48,"componentType":5126,"count":70,"max":[0.0357372984290123,0.3125,0.23749999701976776],"min":[-0.2232140451669693,0.15625,-0.20624999701976776],"type":"VEC3"},{"bufferView":49,"componentType":5126,"count":70,"max":[1,1,0.9986186623573303],"min":[-0.9550744295120239,-1,-0.8580020070075989],"type":"VEC3"},{"bufferView":50,"componentType":5126,"count":70,"max":[0.6176202893257141,0.46963435411453247],"min":[0.0028919887263327837,0],"type":"VEC2"},{"bufferView":51,"componentType":5123,"count":96,"max":[69],"min":[0],"type":"SCALAR"},{"bufferView":52,"componentType":5126,"count":70,"max":[0.2232140451669693,0.3125,0.23749999701976776],"min":[-0.0357372984290123,0.15625,-0.20624999701976776],"type":"VEC3"},{"bufferView":53,"componentType":5126,"count":70,"max":[0.9550744295120239,1,0.9986186623573303],"min":[-1,-1,-0.8580020070075989],"type":"VEC3"},{"bufferView":54,"componentType":5126,"count":70,"max":[0.6176202893257141,0.484375],"min":[0.16269288957118988,0.0625],"type":"VEC2"},{"bufferView":55,"componentType":5123,"count":96,"max":[69],"min":[0],"type":"SCALAR"}],"materials":[{"pbrMetallicRoughness":{"metallicFactor":0,"roughnessFactor":1,"baseColorTexture":{"index":0}},"alphaMode":"MASK","alphaCutoff":0.05,"doubleSided":true},{"pbrMetallicRoughness":{"metallicFactor":0,"roughnessFactor":1,"baseColorTexture":{"index":1}},"alphaMode":"MASK","alphaCutoff":0.05,"doubleSided":true},{"pbrMetallicRoughness":{"metallicFactor":0,"roughnessFactor":1},"alphaMode":"MASK","alphaCutoff":0.05,"doubleSided":true},{"pbrMetallicRoughness":{"metallicFactor":0,"roughnessFactor":1,"baseColorTexture":{"index":2}},"alphaMode":"MASK","alphaCutoff":0.05,"doubleSided":true},{"pbrMetallicRoughness":{"metallicFactor":0,"roughnessFactor":1,"baseColorTexture":{"index":3}},"alphaMode":"MASK","alphaCutoff":0.05,"doubleSided":true},{"pbrMetallicRoughness":{"metallicFactor":0,"roughnessFactor":1,"baseColorTexture":{"index":4}},"alphaMode":"MASK","alphaCutoff":0.05,"doubleSided":true},{"pbrMetallicRoughness":{"metallicFactor":0,"roughnessFactor":1,"baseColorTexture":{"index":5}},"alphaMode":"MASK","alphaCutoff":0.05,"doubleSided":true},{"pbrMetallicRoughness":{"metallicFactor":0,"roughnessFactor":1,"baseColorTexture":{"index":6}},"alphaMode":"MASK","alphaCutoff":0.05,"doubleSided":true},{"pbrMetallicRoughness":{"metallicFactor":0,"roughnessFactor":1,"baseColorTexture":{"index":7}},"alphaMode":"MASK","alphaCutoff":0.05,"doubleSided":true}],"textures":[{"sampler":0,"source":0,"name":"iveco caminhao.png"},{"sampler":1,"source":1,"name":"roda"},{"sampler":2,"source":2,"name":"frente.png"},{"sampler":3,"source":3,"name":"vrido.png"},{"sampler":4,"source":4,"name":"outra frente.png"},{"sampler":5,"source":5,"name":"janela.png"},{"sampler":6,"source":6,"name":"texture"},{"sampler":7,"source":7,"name":"texture"}],"samplers":[{"magFilter":9728,"minFilter":9728,"wrapS":33071,"wrapT":33071},{"magFilter":9728,"minFilter":9728,"wrapS":33071,"wrapT":33071},{"magFilter":9728,"minFilter":9728,"wrapS":33071,"wrapT":33071},{"magFilter":9728,"minFilter":9728,"wrapS":33071,"wrapT":33071},{"magFilter":9728,"minFilter":9728,"wrapS":33071,"wrapT":33071},{"magFilter":9728,"minFilter":9728,"wrapS":33071,"wrapT":33071},{"magFilter":9728,"minFilter":9728,"wrapS":33071,"wrapT":33071},{"magFilter":9728,"minFilter":9728,"wrapS":33071,"wrapT":33071}],"images":[{"mimeType":"image/png","uri":"data:image/png;base64,"},{"mimeType":"image/png","uri":"data:image/png;base64,"},{"mimeType":"image/png","uri":"data:image/png;base64,"},{"mimeType":"image/png","uri":"data:image/png;base64,"},{"mimeType":"image/png","uri":"data:image/png;base64,"},{"mimeType":"image/png","uri":"data:image/png;base64,"},{"mimeType":"image/png","uri":"data:image/png;base64,"},{"mimeType":"image/png","uri":"data:image/png;base64,"}],"meshes":[{"primitives":[{"mode":4,"attributes":{"POSITION":0,"NORMAL":1,"TEXCOORD_0":2},"indices":3,"material":0}]},{"primitives":[{"mode":4,"attributes":{"POSITION":4,"NORMAL":5,"TEXCOORD_0":6},"indices":7,"material":1}]},{"primitives":[{"mode":4,"attributes":{"POSITION":8,"NORMAL":9,"TEXCOORD_0":10},"indices":11,"material":1}]},{"primitives":[{"mode":4,"attributes":{"POSITION":12,"NORMAL":13,"TEXCOORD_0":14},"indices":15,"material":1}]},{"primitives":[{"mode":4,"attributes":{"POSITION":16,"NORMAL":17,"TEXCOORD_0":18},"indices":19,"material":1}]},{"primitives":[{"mode":4,"attributes":{"POSITION":20,"NORMAL":21,"TEXCOORD_0":22},"indices":23,"material":2}]},{"primitives":[{"mode":4,"attributes":{"POSITION":24,"NORMAL":25,"TEXCOORD_0":26},"indices":27,"material":3}]},{"primitives":[{"mode":4,"attributes":{"POSITION":28,"NORMAL":29,"TEXCOORD_0":30},"indices":31,"material":4}]},{"primitives":[{"mode":4,"attributes":{"POSITION":32,"NORMAL":33,"TEXCOORD_0":34},"indices":35,"material":5}]},{"primitives":[{"mode":4,"attributes":{"POSITION":36,"NORMAL":37,"TEXCOORD_0":38},"indices":39,"material":6}]},{"primitives":[{"mode":4,"attributes":{"POSITION":40,"NORMAL":41,"TEXCOORD_0":42},"indices":43,"material":6}]},{"primitives":[{"mode":4,"attributes":{"POSITION":44,"NORMAL":45,"TEXCOORD_0":46},"indices":47,"material":7}]},{"primitives":[{"mode":4,"attributes":{"POSITION":48,"NORMAL":49,"TEXCOORD_0":50},"indices":51,"material":8}]},{"primitives":[{"mode":4,"attributes":{"POSITION":52,"NORMAL":53,"TEXCOORD_0":54},"indices":55,"material":8}]}]}